<svg version="1.2" baseProfile="tiny-ps" xmlns="http://www.w3.org/2000/svg" viewBox="0 0 16 16" width="16" height="16">
	<title>signout_106525-svg</title>
	<style>
		tspan { white-space:pre }
		.shp0 { fill: #9a91c8 } 
	</style>
	<path id="Layer copy" fill-rule="evenodd" class="shp0" d="M11.99 7L8 7L8 5L11.99 5L11.99 3L15.99 6L11.99 9L11.99 7ZM9.99 11.99L6 11.99L6 3L2 1L10 1L10 4L11 4L11 1C11 0.45 10.55 0 10 0L1 0C0.87 0 0.74 0.03 0.62 0.08C0.5 0.13 0.39 0.2 0.29 0.29C0.2 0.39 0.13 0.5 0.08 0.62C0.03 0.74 0 0.87 0 1L0 12.37C0 12.76 0.22 13.1 0.55 13.28L6 16L6 12.99L9.99 12.99C10.54 12.99 10.99 12.54 10.99 11.99L10.99 8L9.99 8L9.99 11.99Z" />
</svg>